<svg width="798" height="203" viewBox="0 0 798 203" fill="none" xmlns="http://www.w3.org/2000/svg">
<mask id="path-1-outside-1_9_108" maskUnits="userSpaceOnUse" x="151" y="58" width="647" height="110" fill="black">
<rect fill="white" x="151" y="58" width="647" height="110"/>
<path d="M189.58 164.26C182.393 164.26 176.187 162.813 170.96 159.92C165.733 157.027 161.673 152.92 158.78 147.6C155.98 142.28 154.58 136.027 154.58 128.84H165.08C165.08 133.693 166.107 138.033 168.16 141.86C170.307 145.687 173.2 148.72 176.84 150.96C180.48 153.107 184.68 154.273 189.44 154.46C194.2 154.553 198.447 153.76 202.18 152.08C205.913 150.4 208.807 148.067 210.86 145.08C212.913 142 213.8 138.547 213.52 134.72C213.24 127.067 207.08 121.093 195.04 116.8L180.2 111.48C172.64 108.773 167.04 105.693 163.4 102.24C159.853 98.6933 157.893 94.4933 157.52 89.64C157.147 84.1333 158.267 79.2333 160.88 74.94C163.587 70.5533 167.413 67.1467 172.36 64.72C177.307 62.2 182.907 61.0333 189.16 61.22C198.867 61.5 206.707 64.3933 212.68 69.9C218.747 75.3133 222.013 82.5467 222.48 91.6H211.98C211.607 85.72 209.273 80.8667 204.98 77.04C200.687 73.12 195.367 71.1133 189.02 71.02C184.82 70.8333 181.087 71.4867 177.82 72.98C174.647 74.4733 172.173 76.62 170.4 79.42C168.627 82.1267 167.833 85.2067 168.02 88.66C168.207 91.2733 169.607 93.6067 172.22 95.66C174.833 97.62 178.893 99.6733 184.4 101.82L199.66 107.56C215.153 113.44 223.18 121.98 223.74 133.18C224.02 138.967 222.667 144.24 219.68 149C216.693 153.667 212.587 157.4 207.36 160.2C202.133 162.907 196.207 164.26 189.58 164.26ZM254.485 163V63.6H315.945V73.4H264.985V105.46H313.565V115.96H264.985V153.2H315.945V163H254.485ZM414.171 163H400.731L375.811 117.92H356.771V163H346.271V63.6H383.791C392.657 63.6 399.471 65.98 404.231 70.74C409.084 75.4067 411.511 82.1733 411.511 91.04C411.511 98.6933 409.551 104.807 405.631 109.38C401.804 113.953 396.297 116.707 389.111 117.64L414.171 163ZM356.771 73.4V108.12H383.791C389.484 108.12 393.824 106.673 396.811 103.78C399.797 100.793 401.197 96.5467 401.011 91.04C401.011 85.3467 399.517 81.0067 396.531 78.02C393.544 74.94 389.297 73.4 383.791 73.4H356.771ZM505.396 163H444.776L444.636 63.6H455.136V153.2H505.396V163ZM598.721 163H531.241V153.2H559.241V73.4H531.241V63.6H598.721V73.4H569.741V153.2H598.721V163ZM626.667 163V63.6H690.647L690.787 163H680.287L680.147 73.4H637.167V163H626.667ZM731.052 162.86H720.552V63.74H731.052V111.06L771.372 63.6H783.972L752.612 101.26L792.092 163H779.352L745.752 109.52L731.052 127.3V162.86Z"/>
</mask>
<path d="M189.58 164.26C182.393 164.26 176.187 162.813 170.96 159.92C165.733 157.027 161.673 152.92 158.78 147.6C155.98 142.28 154.58 136.027 154.58 128.84H165.08C165.08 133.693 166.107 138.033 168.16 141.86C170.307 145.687 173.2 148.72 176.84 150.96C180.48 153.107 184.68 154.273 189.44 154.46C194.2 154.553 198.447 153.76 202.18 152.08C205.913 150.4 208.807 148.067 210.86 145.08C212.913 142 213.8 138.547 213.52 134.72C213.24 127.067 207.08 121.093 195.04 116.8L180.2 111.48C172.64 108.773 167.04 105.693 163.4 102.24C159.853 98.6933 157.893 94.4933 157.52 89.64C157.147 84.1333 158.267 79.2333 160.88 74.94C163.587 70.5533 167.413 67.1467 172.36 64.72C177.307 62.2 182.907 61.0333 189.16 61.22C198.867 61.5 206.707 64.3933 212.68 69.9C218.747 75.3133 222.013 82.5467 222.48 91.6H211.98C211.607 85.72 209.273 80.8667 204.98 77.04C200.687 73.12 195.367 71.1133 189.02 71.02C184.82 70.8333 181.087 71.4867 177.82 72.98C174.647 74.4733 172.173 76.62 170.4 79.42C168.627 82.1267 167.833 85.2067 168.02 88.66C168.207 91.2733 169.607 93.6067 172.22 95.66C174.833 97.62 178.893 99.6733 184.4 101.82L199.66 107.56C215.153 113.44 223.18 121.98 223.74 133.18C224.02 138.967 222.667 144.24 219.68 149C216.693 153.667 212.587 157.4 207.36 160.2C202.133 162.907 196.207 164.26 189.58 164.26ZM254.485 163V63.6H315.945V73.4H264.985V105.46H313.565V115.96H264.985V153.2H315.945V163H254.485ZM414.171 163H400.731L375.811 117.92H356.771V163H346.271V63.6H383.791C392.657 63.6 399.471 65.98 404.231 70.74C409.084 75.4067 411.511 82.1733 411.511 91.04C411.511 98.6933 409.551 104.807 405.631 109.38C401.804 113.953 396.297 116.707 389.111 117.64L414.171 163ZM356.771 73.4V108.12H383.791C389.484 108.12 393.824 106.673 396.811 103.78C399.797 100.793 401.197 96.5467 401.011 91.04C401.011 85.3467 399.517 81.0067 396.531 78.02C393.544 74.94 389.297 73.4 383.791 73.4H356.771ZM505.396 163H444.776L444.636 63.6H455.136V153.2H505.396V163ZM598.721 163H531.241V153.2H559.241V73.4H531.241V63.6H598.721V73.4H569.741V153.2H598.721V163ZM626.667 163V63.6H690.647L690.787 163H680.287L680.147 73.4H637.167V163H626.667ZM731.052 162.86H720.552V63.74H731.052V111.06L771.372 63.6H783.972L752.612 101.26L792.092 163H779.352L745.752 109.52L731.052 127.3V162.86Z" fill="black"/>
<path d="M170.96 159.92L169.507 162.545L169.507 162.545L170.96 159.92ZM158.78 147.6L156.125 148.997L156.135 149.015L156.145 149.033L158.78 147.6ZM154.58 128.84V125.84H151.58V128.84H154.58ZM165.08 128.84H168.08V125.84H165.08V128.84ZM168.16 141.86L165.517 143.278L165.53 143.303L165.544 143.328L168.16 141.86ZM176.84 150.96L175.268 153.515L175.292 153.53L175.316 153.544L176.84 150.96ZM189.44 154.46L189.322 157.458L189.352 157.459L189.381 157.459L189.44 154.46ZM202.18 152.08L203.411 154.816L203.411 154.816L202.18 152.08ZM210.86 145.08L213.332 146.78L213.344 146.762L213.356 146.744L210.86 145.08ZM213.52 134.72L210.522 134.83L210.524 134.884L210.528 134.939L213.52 134.72ZM195.04 116.8L194.028 119.624L194.032 119.626L195.04 116.8ZM180.2 111.48L181.212 108.656L181.211 108.656L180.2 111.48ZM163.4 102.24L161.279 104.361L161.307 104.389L161.335 104.416L163.4 102.24ZM157.52 89.64L154.527 89.8429L154.528 89.8565L154.529 89.8701L157.52 89.64ZM160.88 74.94L158.327 73.3647L158.322 73.3724L158.317 73.3802L160.88 74.94ZM172.36 64.72L173.681 67.4134L173.702 67.4034L173.722 67.3931L172.36 64.72ZM189.16 61.22L189.07 64.2187L189.073 64.2187L189.16 61.22ZM212.68 69.9L210.647 72.1057L210.664 72.1222L210.683 72.1384L212.68 69.9ZM222.48 91.6V94.6H225.639L225.476 91.4456L222.48 91.6ZM211.98 91.6L208.986 91.7901L209.164 94.6H211.98V91.6ZM204.98 77.04L202.957 79.2555L202.97 79.2676L202.984 79.2795L204.98 77.04ZM189.02 71.02L188.887 74.017L188.931 74.019L188.976 74.0197L189.02 71.02ZM177.82 72.98L176.573 70.2516L176.558 70.2585L176.543 70.2655L177.82 72.98ZM170.4 79.42L172.909 81.0641L172.922 81.0447L172.934 81.0252L170.4 79.42ZM168.02 88.66L165.024 88.8219L165.026 88.8478L165.028 88.8737L168.02 88.66ZM172.22 95.66L170.367 98.019L170.393 98.0398L170.42 98.06L172.22 95.66ZM184.4 101.82L183.31 104.615L183.327 104.622L183.344 104.628L184.4 101.82ZM199.66 107.56L200.724 104.755L200.716 104.752L199.66 107.56ZM223.74 133.18L226.736 133.035L226.736 133.03L223.74 133.18ZM219.68 149L222.207 150.617L222.214 150.606L222.221 150.594L219.68 149ZM207.36 160.2L208.74 162.864L208.758 162.854L208.777 162.844L207.36 160.2ZM189.58 164.26V161.26C182.799 161.26 177.113 159.897 172.413 157.295L170.96 159.92L169.507 162.545C175.26 165.73 181.988 167.26 189.58 167.26V164.26ZM170.96 159.92L172.413 157.295C167.693 154.682 164.04 150.992 161.415 146.167L158.78 147.6L156.145 149.033C159.307 154.848 163.774 159.371 169.507 162.545L170.96 159.92ZM158.78 147.6L161.435 146.203C158.902 141.39 157.58 135.634 157.58 128.84H154.58H151.58C151.58 136.419 153.058 143.17 156.125 148.997L158.78 147.6ZM154.58 128.84V131.84H165.08V128.84V125.84H154.58V128.84ZM165.08 128.84H162.08C162.08 134.129 163.203 138.966 165.517 143.278L168.16 141.86L170.803 140.442C169.011 137.1 168.08 133.257 168.08 128.84H165.08ZM168.16 141.86L165.544 143.328C167.933 147.587 171.181 151 175.268 153.515L176.84 150.96L178.412 148.405C175.219 146.44 172.68 143.786 170.776 140.392L168.16 141.86ZM176.84 150.96L175.316 153.544C179.435 155.973 184.131 157.254 189.322 157.458L189.44 154.46L189.558 151.462C185.229 151.293 181.525 150.24 178.364 148.376L176.84 150.96ZM189.44 154.46L189.381 157.459C194.513 157.56 199.212 156.706 203.411 154.816L202.18 152.08L200.949 149.344C197.682 150.814 193.887 151.547 189.499 151.461L189.44 154.46ZM202.18 152.08L203.411 154.816C207.579 152.94 210.929 150.275 213.332 146.78L210.86 145.08L208.388 143.38C206.684 145.858 204.248 147.86 200.949 149.344L202.18 152.08ZM210.86 145.08L213.356 146.744C215.794 143.088 216.839 138.967 216.512 134.501L213.52 134.72L210.528 134.939C210.761 138.126 210.033 140.912 208.364 143.416L210.86 145.08ZM213.52 134.72L216.518 134.61C216.167 125.021 208.387 118.374 196.048 113.974L195.04 116.8L194.032 119.626C205.773 123.812 210.313 129.112 210.522 134.83L213.52 134.72ZM195.04 116.8L196.052 113.976L181.212 108.656L180.2 111.48L179.188 114.304L194.028 119.624L195.04 116.8ZM180.2 111.48L181.211 108.656C173.835 106.015 168.675 103.109 165.465 100.064L163.4 102.24L161.335 104.416C165.405 108.277 171.445 111.532 179.189 114.304L180.2 111.48ZM163.4 102.24L165.521 100.119C162.464 97.0616 160.828 93.5258 160.511 89.4099L157.52 89.64L154.529 89.8701C154.959 95.4608 157.242 100.325 161.279 104.361L163.4 102.24ZM157.52 89.64L160.513 89.4371C160.177 84.4848 161.183 80.2122 163.443 76.4998L160.88 74.94L158.317 73.3802C155.35 78.2545 154.116 83.7819 154.527 89.8429L157.52 89.64ZM160.88 74.94L163.433 76.5153C165.822 72.6435 169.206 69.6088 173.681 67.4134L172.36 64.72L171.039 62.0266C165.621 64.6845 161.351 68.4632 158.327 73.3647L160.88 74.94ZM172.36 64.72L173.722 67.3931C178.165 65.1295 183.256 64.0451 189.07 64.2187L189.16 61.22L189.25 58.2213C182.558 58.0216 176.448 59.2705 170.998 62.0469L172.36 64.72ZM189.16 61.22L189.073 64.2187C198.205 64.4822 205.305 67.1816 210.647 72.1057L212.68 69.9L214.713 67.6943C208.108 61.6051 199.528 58.5178 189.247 58.2212L189.16 61.22ZM212.68 69.9L210.683 72.1384C216.08 76.9547 219.053 83.4004 219.484 91.7544L222.48 91.6L225.476 91.4456C224.973 81.6929 221.413 73.672 214.677 67.6616L212.68 69.9ZM222.48 91.6V88.6H211.98V91.6V94.6H222.48V91.6ZM211.98 91.6L214.974 91.4099C214.552 84.7636 211.875 79.1666 206.976 74.8005L204.98 77.04L202.984 79.2795C206.672 82.5668 208.661 86.6764 208.986 91.7901L211.98 91.6ZM204.98 77.04L207.003 74.8245C202.116 70.3631 196.071 68.1234 189.064 68.0203L189.02 71.02L188.976 74.0197C194.662 74.1033 199.257 75.8769 202.957 79.2555L204.98 77.04ZM189.02 71.02L189.153 68.023C184.559 67.8188 180.34 68.5295 176.573 70.2516L177.82 72.98L179.067 75.7084C181.833 74.4439 185.081 73.8479 188.887 74.017L189.02 71.02ZM177.82 72.98L176.543 70.2655C172.885 71.9869 169.962 74.5046 167.866 77.8148L170.4 79.42L172.934 81.0252C174.385 78.7354 176.409 76.9598 179.097 75.6945L177.82 72.98ZM170.4 79.42L167.891 77.7759C165.742 81.0552 164.806 84.7768 165.024 88.8219L168.02 88.66L171.016 88.4981C170.861 85.6366 171.511 83.1982 172.909 81.0641L170.4 79.42ZM168.02 88.66L165.028 88.8737C165.29 92.5455 167.279 95.5929 170.367 98.019L172.22 95.66L174.073 93.301C171.935 91.6205 171.123 90.0011 171.012 88.4463L168.02 88.66ZM172.22 95.66L170.42 98.06C173.36 100.265 177.719 102.436 183.31 104.615L184.4 101.82L185.49 99.0249C180.067 96.9111 176.307 94.9751 174.02 93.26L172.22 95.66ZM184.4 101.82L183.344 104.628L198.604 110.368L199.66 107.56L200.716 104.752L185.456 99.0121L184.4 101.82ZM199.66 107.56L198.596 110.365C213.587 116.054 220.27 123.86 220.744 133.33L223.74 133.18L226.736 133.03C226.09 120.1 216.719 110.826 200.724 104.755L199.66 107.56ZM223.74 133.18L220.744 133.325C220.995 138.519 219.789 143.182 217.139 147.406L219.68 149L222.221 150.594C225.544 145.298 227.045 139.414 226.736 133.035L223.74 133.18ZM219.68 149L217.153 147.383C214.462 151.588 210.751 154.98 205.943 157.556L207.36 160.2L208.777 162.844C214.422 159.82 218.925 155.746 222.207 150.617L219.68 149ZM207.36 160.2L205.98 157.536C201.231 159.995 195.788 161.26 189.58 161.26V164.26V167.26C196.626 167.26 203.035 165.818 208.74 162.864L207.36 160.2ZM254.485 163H251.485V166H254.485V163ZM254.485 63.6V60.6H251.485V63.6H254.485ZM315.945 63.6H318.945V60.6H315.945V63.6ZM315.945 73.4V76.4H318.945V73.4H315.945ZM264.985 73.4V70.4H261.985V73.4H264.985ZM264.985 105.46H261.985V108.46H264.985V105.46ZM313.565 105.46H316.565V102.46H313.565V105.46ZM313.565 115.96V118.96H316.565V115.96H313.565ZM264.985 115.96V112.96H261.985V115.96H264.985ZM264.985 153.2H261.985V156.2H264.985V153.2ZM315.945 153.2H318.945V150.2H315.945V153.2ZM315.945 163V166H318.945V163H315.945ZM254.485 163H257.485V63.6H254.485H251.485V163H254.485ZM254.485 63.6V66.6H315.945V63.6V60.6H254.485V63.6ZM315.945 63.6H312.945V73.4H315.945H318.945V63.6H315.945ZM315.945 73.4V70.4H264.985V73.4V76.4H315.945V73.4ZM264.985 73.4H261.985V105.46H264.985H267.985V73.4H264.985ZM264.985 105.46V108.46H313.565V105.46V102.46H264.985V105.46ZM313.565 105.46H310.565V115.96H313.565H316.565V105.46H313.565ZM313.565 115.96V112.96H264.985V115.96V118.96H313.565V115.96ZM264.985 115.96H261.985V153.2H264.985H267.985V115.96H264.985ZM264.985 153.2V156.2H315.945V153.2V150.2H264.985V153.2ZM315.945 153.2H312.945V163H315.945H318.945V153.2H315.945ZM315.945 163V160H254.485V163V166H315.945V163ZM414.171 163V166H419.255L416.797 161.549L414.171 163ZM400.731 163L398.105 164.451L398.961 166H400.731V163ZM375.811 117.92L378.436 116.469L377.58 114.92H375.811V117.92ZM356.771 117.92V114.92H353.771V117.92H356.771ZM356.771 163V166H359.771V163H356.771ZM346.271 163H343.271V166H346.271V163ZM346.271 63.6V60.6H343.271V63.6H346.271ZM404.231 70.74L402.109 72.8613L402.13 72.8821L402.151 72.9025L404.231 70.74ZM405.631 109.38L403.353 107.428L403.341 107.441L403.33 107.455L405.631 109.38ZM389.111 117.64L388.724 114.665L384.353 115.233L386.485 119.091L389.111 117.64ZM356.771 73.4V70.4H353.771V73.4H356.771ZM356.771 108.12H353.771V111.12H356.771V108.12ZM396.811 103.78L398.898 105.935L398.915 105.918L398.932 105.901L396.811 103.78ZM401.011 91.04H398.011V91.0908L398.012 91.1416L401.011 91.04ZM396.531 78.02L394.377 80.1084L394.393 80.125L394.409 80.1413L396.531 78.02ZM414.171 163V160H400.731V163V166H414.171V163ZM400.731 163L403.356 161.549L378.436 116.469L375.811 117.92L373.185 119.371L398.105 164.451L400.731 163ZM375.811 117.92V114.92H356.771V117.92V120.92H375.811V117.92ZM356.771 117.92H353.771V163H356.771H359.771V117.92H356.771ZM356.771 163V160H346.271V163V166H356.771V163ZM346.271 163H349.271V63.6H346.271H343.271V163H346.271ZM346.271 63.6V66.6H383.791V63.6V60.6H346.271V63.6ZM383.791 63.6V66.6C392.123 66.6 398.073 68.8254 402.109 72.8613L404.231 70.74L406.352 68.6187C400.868 63.1346 393.191 60.6 383.791 60.6V63.6ZM404.231 70.74L402.151 72.9025C406.247 76.8403 408.511 82.7194 408.511 91.04H411.511H414.511C414.511 81.6273 411.921 73.973 406.31 68.5775L404.231 70.74ZM411.511 91.04H408.511C408.511 98.1762 406.692 103.532 403.353 107.428L405.631 109.38L407.908 111.332C412.409 106.081 414.511 99.2104 414.511 91.04H411.511ZM405.631 109.38L403.33 107.455C400.086 111.331 395.333 113.807 388.724 114.665L389.111 117.64L389.497 120.615C397.262 119.607 403.522 116.575 407.931 111.305L405.631 109.38ZM389.111 117.64L386.485 119.091L411.545 164.451L414.171 163L416.797 161.549L391.737 116.189L389.111 117.64ZM356.771 73.4H353.771V108.12H356.771H359.771V73.4H356.771ZM356.771 108.12V111.12H383.791V108.12V105.12H356.771V108.12ZM383.791 108.12V111.12C389.97 111.12 395.172 109.545 398.898 105.935L396.811 103.78L394.723 101.625C392.476 103.802 388.998 105.12 383.791 105.12V108.12ZM396.811 103.78L398.932 105.901C402.671 102.162 404.215 97.0094 404.009 90.9384L401.011 91.04L398.012 91.1416C398.18 96.0839 396.923 99.4245 394.689 101.659L396.811 103.78ZM401.011 91.04H404.011C404.011 84.8359 402.375 79.6216 398.652 75.8987L396.531 78.02L394.409 80.1413C396.66 82.3917 398.011 85.8574 398.011 91.04H401.011ZM396.531 78.02L398.684 75.9316C394.984 72.1154 389.867 70.4 383.791 70.4V73.4V76.4C388.728 76.4 392.104 77.7646 394.377 80.1084L396.531 78.02ZM383.791 73.4V70.4H356.771V73.4V76.4H383.791V73.4ZM505.396 163V166H508.396V163H505.396ZM444.776 163L441.776 163.004L441.78 166H444.776V163ZM444.636 63.6V60.6H441.632L441.636 63.6042L444.636 63.6ZM455.136 63.6H458.136V60.6H455.136V63.6ZM455.136 153.2H452.136V156.2H455.136V153.2ZM505.396 153.2H508.396V150.2H505.396V153.2ZM505.396 163V160H444.776V163V166H505.396V163ZM444.776 163L447.776 162.996L447.636 63.5958L444.636 63.6L441.636 63.6042L441.776 163.004L444.776 163ZM444.636 63.6V66.6H455.136V63.6V60.6H444.636V63.6ZM455.136 63.6H452.136V153.2H455.136H458.136V63.6H455.136ZM455.136 153.2V156.2H505.396V153.2V150.2H455.136V153.2ZM505.396 153.2H502.396V163H505.396H508.396V153.2H505.396ZM598.721 163V166H601.721V163H598.721ZM531.241 163H528.241V166H531.241V163ZM531.241 153.2V150.2H528.241V153.2H531.241ZM559.241 153.2V156.2H562.241V153.2H559.241ZM559.241 73.4H562.241V70.4H559.241V73.4ZM531.241 73.4H528.241V76.4H531.241V73.4ZM531.241 63.6V60.6H528.241V63.6H531.241ZM598.721 63.6H601.721V60.6H598.721V63.6ZM598.721 73.4V76.4H601.721V73.4H598.721ZM569.741 73.4V70.4H566.741V73.4H569.741ZM569.741 153.2H566.741V156.2H569.741V153.2ZM598.721 153.2H601.721V150.2H598.721V153.2ZM598.721 163V160H531.241V163V166H598.721V163ZM531.241 163H534.241V153.2H531.241H528.241V163H531.241ZM531.241 153.2V156.2H559.241V153.2V150.2H531.241V153.2ZM559.241 153.2H562.241V73.4H559.241H556.241V153.2H559.241ZM559.241 73.4V70.4H531.241V73.4V76.4H559.241V73.4ZM531.241 73.4H534.241V63.6H531.241H528.241V73.4H531.241ZM531.241 63.6V66.6H598.721V63.6V60.6H531.241V63.6ZM598.721 63.6H595.721V73.4H598.721H601.721V63.6H598.721ZM598.721 73.4V70.4H569.741V73.4V76.4H598.721V73.4ZM569.741 73.4H566.741V153.2H569.741H572.741V73.4H569.741ZM569.741 153.2V156.2H598.721V153.2V150.2H569.741V153.2ZM598.721 153.2H595.721V163H598.721H601.721V153.2H598.721ZM626.667 163H623.667V166H626.667V163ZM626.667 63.6V60.6H623.667V63.6H626.667ZM690.647 63.6L693.647 63.5958L693.642 60.6H690.647V63.6ZM690.787 163V166H693.791L693.787 162.996L690.787 163ZM680.287 163L677.287 163.005L677.291 166H680.287V163ZM680.147 73.4L683.147 73.3953L683.142 70.4H680.147V73.4ZM637.167 73.4V70.4H634.167V73.4H637.167ZM637.167 163V166H640.167V163H637.167ZM626.667 163H629.667V63.6H626.667H623.667V163H626.667ZM626.667 63.6V66.6H690.647V63.6V60.6H626.667V63.6ZM690.647 63.6L687.647 63.6042L687.787 163.004L690.787 163L693.787 162.996L693.647 63.5958L690.647 63.6ZM690.787 163V160H680.287V163V166H690.787V163ZM680.287 163L683.287 162.995L683.147 73.3953L680.147 73.4L677.147 73.4047L677.287 163.005L680.287 163ZM680.147 73.4V70.4H637.167V73.4V76.4H680.147V73.4ZM637.167 73.4H634.167V163H637.167H640.167V73.4H637.167ZM637.167 163V160H626.667V163V166H637.167V163ZM731.052 162.86V165.86H734.052V162.86H731.052ZM720.552 162.86H717.552V165.86H720.552V162.86ZM720.552 63.74V60.74H717.552V63.74H720.552ZM731.052 63.74H734.052V60.74H731.052V63.74ZM731.052 111.06H728.052V119.225L733.338 113.002L731.052 111.06ZM771.372 63.6V60.6H769.984L769.086 61.6576L771.372 63.6ZM783.972 63.6L786.277 65.5197L790.374 60.6H783.972V63.6ZM752.612 101.26L750.307 99.3403L748.902 101.027L750.084 102.876L752.612 101.26ZM792.092 163V166H797.571L794.619 161.384L792.092 163ZM779.352 163L776.812 164.596L777.694 166H779.352V163ZM745.752 109.52L748.292 107.924L746.084 104.41L743.44 107.608L745.752 109.52ZM731.052 127.3L728.74 125.388L728.052 126.22V127.3H731.052ZM731.052 162.86V159.86H720.552V162.86V165.86H731.052V162.86ZM720.552 162.86H723.552V63.74H720.552H717.552V162.86H720.552ZM720.552 63.74V66.74H731.052V63.74V60.74H720.552V63.74ZM731.052 63.74H728.052V111.06H731.052H734.052V63.74H731.052ZM731.052 111.06L733.338 113.002L773.658 65.5424L771.372 63.6L769.086 61.6576L728.766 109.118L731.052 111.06ZM771.372 63.6V66.6H783.972V63.6V60.6H771.372V63.6ZM783.972 63.6L781.667 61.6803L750.307 99.3403L752.612 101.26L754.917 103.18L786.277 65.5197L783.972 63.6ZM752.612 101.26L750.084 102.876L789.564 164.616L792.092 163L794.619 161.384L755.139 99.6438L752.612 101.26ZM792.092 163V160H779.352V163V166H792.092V163ZM779.352 163L781.892 161.404L748.292 107.924L745.752 109.52L743.212 111.116L776.812 164.596L779.352 163ZM745.752 109.52L743.44 107.608L728.74 125.388L731.052 127.3L733.364 129.212L748.064 111.432L745.752 109.52ZM731.052 127.3H728.052V162.86H731.052H734.052V127.3H731.052Z" fill="black" mask="url(#path-1-outside-1_9_108)"/>
<path d="M82.0762 133.605H97.635C97.635 144.993 102.564 155.186 110.328 162.01L119.82 152.518V133.605V111.761H104.46H83.4414L78.1805 117.022V129.709L82.0762 133.605Z" fill="black"/>
<path fill-rule="evenodd" clip-rule="evenodd" d="M45.8975 108.348L109.496 44.7502L124.598 44.3527V59.6825L60.9151 123.366L100.79 163.241L102.887 169.951L92.2162 179.479L84.2305 178.082L45.2149 139.066L30.1973 124.048L45.8975 108.348Z" fill="black"/>
<path d="M25.2776 170.808C33.9626 176.468 44.3909 180.023 74.0847 177.975L53.2649 157.497C45.8207 157.497 41.1001 156.023 35.5169 151.694C30.0888 147.366 27.6968 146.049 24.595 138.725C21.4932 131.4 21.423 119.569 21.423 110.579C21.423 95.7632 21.423 86.1631 30.3973 76.2652C39.6126 67.0498 49.5105 63.6368 75.45 67.0498L91.6783 50.8992C86.8705 48.4021 52.9236 34.2794 22.2059 55.104C13.3658 61.097 8.92426 68.3331 4.11651 78.6543C-0.536155 88.9756 0.0207969 98.5932 0.0207969 111.079C0.0207969 124.396 0.829091 138.643 5.48175 148.964C10.1344 159.119 16.7477 164.981 25.2776 170.808Z" fill="black"/>
</svg>
